<svg xmlns="http://www.w3.org/2000/svg" version="1.1" xmlns:xlink="http://www.w3.org/1999/xlink" xmlns:svgjs="http://svgjs.dev/svgjs" width="1500" height="2117" viewBox="0 0 1500 2117"><g transform="matrix(1,0,0,1,-1.6831370819440963,0.8619273337972118)"><svg viewBox="0 0 175 247" data-background-color="#ffffff" preserveAspectRatio="xMidYMid meet" height="2117" width="1500" xmlns="http://www.w3.org/2000/svg" xmlns:xlink="http://www.w3.org/1999/xlink"><g id="tight-bounds" transform="matrix(1,0,0,1,0.196365992893476,-0.0994350252962306)"><svg viewBox="0 0 174.60726801421305 247.2" height="247.2" width="174.60726801421305"><g><svg viewBox="0 0 395.52 559.9568970521966" height="247.2" width="174.60726801421305"><g transform="matrix(1,0,0,1,0,346.0758267348351)"><svg viewBox="0 0 395.52 213.88107031736155" height="213.88107031736155" width="395.52"><g id="textblocktransform"><svg viewBox="0 0 395.52 213.88107031736155" height="213.88107031736155" width="395.52" id="textblock"><g><svg viewBox="0 0 395.52 213.88107031736155" height="213.88107031736155" width="395.52"><g transform="matrix(1,0,0,1,0,0)"><svg width="395.52" viewBox="1 -32.85 80.34 43.45" height="213.88107031736155" data-palette-color="#02995f"><path d="M10.05-26.9Q14.4-26.9 17.5-23.95L17.5-23.95 15.6-21.4Q14.2-22.45 12.9-22.98 11.6-23.5 10.15-23.5L10.15-23.5Q8.4-23.5 7.38-22.53 6.35-21.55 6.35-19.85L6.35-19.85Q6.35-18.2 7.35-17.25 8.35-16.3 11.15-15.3L11.15-15.3Q14.75-14 16.45-12.2 18.15-10.4 18.15-7.3L18.15-7.3Q18.15-3.55 15.63-1.48 13.1 0.6 9.35 0.6L9.35 0.6Q4.35 0.6 1-2.85L1-2.85 3.3-5.3Q6.1-2.85 9.25-2.85L9.25-2.85Q11.25-2.85 12.45-3.95 13.65-5.05 13.65-7.05L13.65-7.05Q13.65-8.4 13.2-9.25 12.75-10.1 11.65-10.8 10.55-11.5 8.45-12.25L8.45-12.25Q4.95-13.55 3.45-15.33 1.95-17.1 1.95-19.7L1.95-19.7Q1.95-21.7 2.98-23.35 4-25 5.85-25.95 7.7-26.9 10.05-26.9L10.05-26.9ZM33.25-3.95L34.95-1.2Q32.7 0.6 29.9 0.6L29.9 0.6Q26.95 0.6 25.32-1.15 23.7-2.9 23.7-5.85L23.7-5.85 23.7-22.9 20.15-22.9 20.15-26.35 23.7-26.35 23.7-32.3 28.1-32.85 28.1-26.35 33.2-26.35 32.75-22.9 28.1-22.9 28.1-5.8Q28.1-3.05 30.45-3.05L30.45-3.05Q31.25-3.05 31.85-3.25 32.45-3.45 33.25-3.95L33.25-3.95ZM47.1-26.9Q51.8-26.9 54.37-23.43 56.95-19.95 56.95-13.2L56.95-13.2Q56.95-6.85 54.32-3.13 51.7 0.6 47.05 0.6L47.05 0.6Q42.4 0.6 39.8-3.05 37.2-6.7 37.2-13.15L37.2-13.15Q37.2-19.8 39.8-23.35 42.4-26.9 47.1-26.9L47.1-26.9ZM47.1-23.35Q44.45-23.35 43.15-20.98 41.85-18.6 41.85-13.15L41.85-13.15Q41.85-7.75 43.15-5.35 44.45-2.95 47.05-2.95L47.05-2.95Q49.7-2.95 51-5.35 52.3-7.75 52.3-13.2L52.3-13.2Q52.3-18.6 51-20.98 49.7-23.35 47.1-23.35L47.1-23.35ZM73.49-26.9Q77.34-26.9 79.34-23.38 81.34-19.85 81.34-13.2L81.34-13.2Q81.34-6.75 79.14-3.08 76.94 0.6 72.84 0.6L72.84 0.6Q69.44 0.6 67.24-2.3L67.24-2.3 67.24 10.05 62.84 10.6 62.84-26.35 66.69-26.35 66.94-22.85Q69.44-26.9 73.49-26.9L73.49-26.9ZM71.89-3Q74.24-3 75.47-5.43 76.69-7.85 76.69-13.2L76.69-13.2Q76.69-18.65 75.64-21.03 74.59-23.4 72.34-23.4L72.34-23.4Q69.49-23.4 67.24-19.55L67.24-19.55 67.24-6.05Q69.14-3 71.89-3L71.89-3Z" opacity="1" transform="matrix(1,0,0,1,0,0)" fill="#02995f" class="wordmark-text-0" data-fill-palette-color="primary" id="text-0"></path></svg></g></svg></g></svg></g></svg></g><g transform="matrix(1,0,0,1,76.06665334039641,0)"><svg viewBox="0 0 243.38669331920715 295.58363917859367" height="295.58363917859367" width="243.38669331920715"><g><svg xmlns="http://www.w3.org/2000/svg" xmlns:xlink="http://www.w3.org/1999/xlink" version="1.1" x="0" y="0" viewBox="10.238677902591153 6.000646503111546 39.522644250982125 47.99870879688845" enable-background="new 0 0 60 60" xml:space="preserve" height="295.58363917859367" width="243.38669331920715" class="icon-icon-0" data-fill-palette-color="accent" id="icon-0"><g fill="#02995f" data-fill-palette-color="accent"><path d="M20.295 44.579c0 5.19 4.36 9.42 9.7 9.42 5.35 0 9.71-4.23 9.71-9.42v-3.36H20.295V44.579zM24.995 43.439c0.56 0 1 0.45 1 1 0 2.12 1.8 3.84 4 3.84 0.56 0 1 0.45 1 1 0 0.56-0.44 1-1 1-3.3 0-6-2.62-6-5.84C23.995 43.889 24.445 43.439 24.995 43.439z" fill="#02995f" data-fill-palette-color="accent"></path><path d="M49.345 6.189c-0.34-0.25-0.81-0.25-1.16-0.01l-4.69 3.29c-2.46 1.72-5.77 1.72-8.23 0-3.15-2.21-7.38-2.21-10.53 0-2.46 1.72-5.77 1.72-8.23 0l-4.69-3.29c-0.35-0.24-0.82-0.24-1.16 0.01-0.35 0.25-0.5 0.69-0.37 1.1l9.67 31.93h20.09l9.67-31.93C49.845 6.879 49.695 6.439 49.345 6.189zM24.885 34.709c-0.06 0.01-0.13 0.02-0.19 0.02-0.47 0-0.89-0.33-0.98-0.81l-2.87-14.27c-0.11-0.54 0.25-1.07 0.79-1.18 0.54-0.11 1.07 0.25 1.17 0.79l2.87 14.27C25.785 34.069 25.435 34.599 24.885 34.709zM30.995 33.729c0 0.55-0.44 1-1 1-0.55 0-1-0.45-1-1V19.459c0-0.56 0.45-1 1-1 0.56 0 1 0.44 1 1V33.729zM36.285 33.919c-0.09 0.48-0.51 0.81-0.98 0.81-0.06 0-0.13-0.01-0.19-0.02-0.55-0.11-0.9-0.64-0.79-1.18l2.87-14.27c0.1-0.54 0.63-0.9 1.17-0.79 0.54 0.11 0.9 0.64 0.79 1.181L36.285 33.919z" fill="#02995f" data-fill-palette-color="accent"></path></g></svg></g></svg></g><g></g></svg></g><defs></defs></svg><rect width="174.60726801421305" height="247.2" fill="none" stroke="none" visibility="hidden"></rect></g></svg></g></svg>