<svg width="50" height="50" viewBox="0 0 50 50" fill="none" xmlns="http://www.w3.org/2000/svg">
<g clip-path="url(#clip0_3365_204319)">
<path d="M1 25C1 11.7452 11.7452 1 25 1C38.2548 1 49 11.7452 49 25C49 38.2548 38.2548 49 25 49C11.7452 49 1 38.2548 1 25Z" fill="white"/>
<path d="M31.3877 29.4018C27.559 29.3496 24.4396 27.249 24.425 24.774C24.4122 22.3704 27.3503 20.5178 30.9832 20.5736C31.4308 20.58 31.8683 20.6157 32.293 20.6761C31.7145 20.5718 31.1095 20.5114 30.4889 20.5013C26.6309 20.4427 23.4987 22.3832 23.4987 24.9067C23.4987 27.4302 26.8084 29.7185 30.8843 29.7725C34.1987 29.8173 36.886 28.4142 37.6421 26.4828C36.8302 28.2128 34.3817 29.4439 31.3877 29.4036" fill="#C60C46"/>
<path d="M6.12607 24.4646C6.12607 23.5218 6.12607 23.3488 6.11326 23.1502C6.10044 22.9397 6.05102 22.8399 5.8469 22.7969C5.79748 22.785 5.69222 22.7786 5.60526 22.7786C5.53661 22.7786 5.5 22.7658 5.5 22.7228C5.5 22.6797 5.54302 22.6669 5.63638 22.6669C5.96498 22.6669 6.35582 22.6852 6.47938 22.6852C6.78327 22.6852 7.02491 22.6669 7.23543 22.6669C8.3576 22.6669 8.55622 23.2683 8.55622 23.5969C8.55622 24.1058 8.26515 24.4088 7.92374 24.6815C8.43266 24.8554 9.05232 25.2957 9.05232 26.0206C9.05232 26.6842 8.53792 27.3725 7.39652 27.3725C7.32238 27.3725 7.14207 27.3597 6.96267 27.3542C6.77686 27.3414 6.59105 27.3359 6.49769 27.3359C6.42904 27.3359 6.29266 27.3359 6.14438 27.3423C6.00159 27.3423 5.8405 27.3551 5.71693 27.3551C5.63638 27.3551 5.59336 27.3368 5.59336 27.2929C5.59336 27.2618 5.61808 27.2435 5.69222 27.2435C5.78558 27.2435 5.85972 27.2316 5.91555 27.2188C6.03912 27.1941 6.07024 27.0577 6.09495 26.8774C6.12607 26.6165 6.12607 26.1268 6.12607 25.5566V24.4646ZM6.87022 24.5699C6.87022 24.6193 6.88853 24.6321 6.91324 24.6385C6.96907 24.6513 7.06244 24.6568 7.20431 24.6568C7.40934 24.6568 7.54572 24.6321 7.65098 24.5387C7.81208 24.4088 7.90544 24.1854 7.90544 23.8815C7.90544 23.466 7.66379 22.9205 7.13017 22.9205C7.04321 22.9205 6.98738 22.9205 6.92514 22.9333C6.88212 22.9452 6.86931 22.9708 6.86931 23.0385L6.87022 24.5699ZM7.68851 25.066C7.55853 24.9726 7.41575 24.9296 7.1741 24.9168C7.06244 24.9104 7.00019 24.9104 6.90775 24.9104C6.88303 24.9104 6.87022 24.9232 6.87022 24.9534V26.4234C6.87022 26.8325 6.88853 26.9378 7.08715 27.0183C7.25465 27.087 7.39744 27.0925 7.54023 27.0925C7.8194 27.0925 8.29078 26.9433 8.29078 26.2989C8.29078 25.9144 8.16081 25.3936 7.68942 25.065" fill="#5F6062"/>
<path d="M10.2935 25.736C10.2624 25.736 10.2505 25.7488 10.2376 25.7854L9.90264 26.6723C9.8404 26.827 9.80928 26.9762 9.80928 27.0503C9.80928 27.162 9.86511 27.2426 10.0573 27.2426H10.1507C10.2248 27.2426 10.2441 27.2554 10.2441 27.292C10.2441 27.3414 10.2065 27.3542 10.1388 27.3542C9.94017 27.3542 9.67381 27.3359 9.4816 27.3359C9.41387 27.3359 9.07246 27.3542 8.75027 27.3542C8.66972 27.3542 8.63219 27.3414 8.63219 27.292C8.63219 27.2545 8.6569 27.2426 8.70633 27.2426C8.76217 27.2426 8.84912 27.2361 8.89855 27.2307C9.18412 27.1931 9.30128 26.9826 9.42577 26.6723L10.9818 22.7786C11.0559 22.5992 11.0935 22.5305 11.1557 22.5305C11.2115 22.5305 11.2491 22.5864 11.3104 22.7292C11.4596 23.0706 12.4509 25.6005 12.8481 26.5423C13.0833 27.1007 13.2637 27.1867 13.3936 27.2178C13.487 27.2361 13.5794 27.2426 13.6545 27.2426C13.7039 27.2426 13.735 27.249 13.735 27.292C13.735 27.3414 13.6792 27.3542 13.4495 27.3542C13.2197 27.3542 12.774 27.3542 12.2779 27.3414C12.1662 27.335 12.0921 27.335 12.0921 27.292C12.0921 27.2545 12.1168 27.2426 12.179 27.2361C12.222 27.2242 12.266 27.1675 12.2349 27.0934L11.7388 25.779C11.7259 25.7479 11.7076 25.736 11.6765 25.736H10.2935ZM11.5584 25.4257C11.5896 25.4257 11.596 25.4074 11.5896 25.3881L11.0312 23.8568C11.0248 23.8321 11.0184 23.801 11.0001 23.801C10.9818 23.801 10.969 23.8321 10.9626 23.8568L10.3923 25.3817C10.3859 25.4064 10.3923 25.4247 10.417 25.4247H11.5575L11.5584 25.4257Z" fill="#5F6062"/>
<path d="M14.3611 26.5112C14.3739 26.9945 14.4545 27.1565 14.5781 27.1995C14.6833 27.2371 14.8014 27.2426 14.9002 27.2426C14.9689 27.2426 15.0055 27.2554 15.0055 27.292C15.0055 27.3414 14.9497 27.3542 14.8627 27.3542C14.46 27.3542 14.2119 27.3359 14.0939 27.3359C14.038 27.3359 13.747 27.3542 13.4238 27.3542C13.3433 27.3542 13.2875 27.3478 13.2875 27.292C13.2875 27.2545 13.325 27.2426 13.3863 27.2426C13.4669 27.2426 13.5785 27.2362 13.6655 27.2114C13.8266 27.162 13.8513 26.9817 13.8577 26.4426L13.9135 22.7722C13.9135 22.6486 13.9318 22.5617 13.9941 22.5617C14.0627 22.5617 14.1177 22.6422 14.2238 22.7539C14.298 22.8344 15.2407 23.8449 16.146 24.7447C16.5679 25.1666 17.4045 26.0591 17.5098 26.1588H17.5409L17.4787 23.3745C17.4723 22.9964 17.4164 22.8784 17.2682 22.8161C17.1748 22.7786 17.0265 22.7786 16.9396 22.7786C16.8654 22.7786 16.8407 22.7603 16.8407 22.7228C16.8407 22.6733 16.9094 22.6669 17.0018 22.6669C17.324 22.6669 17.6215 22.6852 17.7524 22.6852C17.821 22.6852 18.0562 22.6669 18.3601 22.6669C18.4407 22.6669 18.5029 22.6733 18.5029 22.7228C18.5029 22.7603 18.4654 22.7786 18.3912 22.7786C18.329 22.7786 18.2796 22.7786 18.2054 22.7969C18.0315 22.8463 17.9821 22.9763 17.9757 23.3241L17.907 27.2371C17.907 27.3735 17.8823 27.4293 17.8265 27.4293C17.7588 27.4293 17.6837 27.3606 17.616 27.2929C17.2251 26.9213 16.4316 26.1085 15.7872 25.4696C15.1117 24.7996 14.4234 24.0252 14.3117 23.9072H14.2934L14.3611 26.5112Z" fill="#5F6062"/>
<path d="M20.0534 24.7374C20.264 24.5076 21.1692 23.5841 21.3495 23.3735C21.5234 23.1685 21.6598 23.0138 21.6598 22.9086C21.6598 22.8399 21.6351 22.7969 21.5729 22.785C21.517 22.7722 21.4923 22.7603 21.4923 22.7228C21.4923 22.6797 21.5234 22.6669 21.5912 22.6669C21.7211 22.6669 22.0626 22.6852 22.2301 22.6852C22.4223 22.6852 22.7637 22.6669 22.9559 22.6669C23.0181 22.6669 23.0612 22.6797 23.0612 22.7228C23.0612 22.7658 23.03 22.7786 22.9678 22.7786C22.8808 22.7786 22.7262 22.8033 22.6081 22.8463C22.4159 22.9205 22.2053 23.0514 21.9381 23.3113C21.7459 23.4971 20.8095 24.4271 20.599 24.6504C20.8223 24.9415 22.0378 26.2504 22.2795 26.4792C22.5522 26.7391 22.8314 27.0183 23.1664 27.1492C23.3522 27.2233 23.4767 27.2426 23.5508 27.2426C23.5939 27.2426 23.6314 27.2554 23.6314 27.292C23.6314 27.335 23.6003 27.3542 23.4822 27.3542H22.9431C22.7573 27.3542 22.6456 27.3542 22.5156 27.3414C22.1806 27.3103 22.0131 27.1739 21.7468 26.9387C21.474 26.697 20.2521 25.2646 20.1221 25.0843L20.0544 24.9909H20.0232V25.5556C20.0232 26.1259 20.0232 26.6156 20.0415 26.8828C20.0544 27.0568 20.1102 27.1931 20.2649 27.2179C20.3518 27.2307 20.4882 27.2426 20.5688 27.2426C20.6182 27.2426 20.6493 27.2609 20.6493 27.292C20.6493 27.335 20.5999 27.3542 20.5312 27.3542C20.1843 27.3542 19.7935 27.3359 19.6379 27.3359C19.4951 27.3359 19.1043 27.3542 18.8562 27.3542C18.7757 27.3542 18.7327 27.3359 18.7327 27.292C18.7327 27.2609 18.7574 27.2426 18.8315 27.2426C18.9249 27.2426 18.999 27.2307 19.0548 27.2179C19.1784 27.1931 19.2095 27.0568 19.2342 26.8764C19.2654 26.6156 19.2654 26.1259 19.2654 25.5556V24.4646C19.2654 23.5218 19.2654 23.3488 19.2526 23.1502C19.2397 22.9397 19.1903 22.8399 18.9862 22.7969C18.9368 22.785 18.8315 22.7786 18.7446 22.7786C18.6768 22.7786 18.6393 22.7658 18.6393 22.7228C18.6393 22.6797 18.6823 22.6669 18.7757 22.6669C19.1043 22.6669 19.4951 22.6852 19.6434 22.6852C19.7917 22.6852 20.1825 22.6669 20.3939 22.6669C20.4809 22.6669 20.5239 22.6797 20.5239 22.7228C20.5239 22.7658 20.4864 22.7786 20.437 22.7786C20.3747 22.7786 20.3381 22.785 20.2631 22.7969C20.0956 22.828 20.0461 22.9333 20.0333 23.1502C20.0205 23.3488 20.0205 23.5218 20.0205 24.4646V24.7374H20.0534Z" fill="#5F6062"/>
<path d="M27.3759 24.4646C27.3759 23.5218 27.3759 23.3488 27.364 23.1502C27.3512 22.9397 27.2899 22.8344 27.1535 22.8033C27.0849 22.785 27.0043 22.7786 26.9302 22.7786C26.8679 22.7786 26.8313 22.7658 26.8313 22.7164C26.8313 22.6788 26.8807 22.6669 26.9805 22.6669C27.2158 22.6669 27.6066 22.6852 27.7869 22.6852C27.9416 22.6852 28.3077 22.6669 28.543 22.6669C28.6235 22.6669 28.6729 22.6788 28.6729 22.7164C28.6729 22.7658 28.6354 22.7786 28.5741 22.7786C28.5127 22.7786 28.4624 22.785 28.3883 22.7969C28.2208 22.828 28.1713 22.9333 28.1585 23.1502C28.1457 23.3488 28.1457 23.5218 28.1457 24.4646V25.5556C28.1457 26.157 28.1457 26.6467 28.1704 26.9131C28.1887 27.0806 28.2327 27.1922 28.4185 27.2169C28.5054 27.2297 28.6418 27.2416 28.7352 27.2416C28.8038 27.2416 28.834 27.26 28.834 27.2911C28.834 27.3341 28.7846 27.3533 28.7159 27.3533C28.3068 27.3533 27.916 27.335 27.7485 27.335C27.6057 27.335 27.2148 27.3533 26.9668 27.3533C26.8862 27.3533 26.8432 27.335 26.8432 27.2911C26.8432 27.26 26.8679 27.2416 26.9421 27.2416C27.0354 27.2416 27.1096 27.2297 27.1654 27.2169C27.2899 27.1922 27.3265 27.087 27.3448 26.9066C27.3759 26.6458 27.3759 26.1561 27.3759 25.5547V24.4646Z" fill="#5F6062"/>
<path d="M28.9704 27.2801C28.8715 27.2371 28.8523 27.2059 28.8523 27.0696C28.8523 26.7282 28.877 26.3565 28.8834 26.2577C28.8899 26.1643 28.9082 26.0966 28.9576 26.0966C29.0134 26.0966 29.0198 26.1524 29.0198 26.2019C29.0198 26.2824 29.0445 26.4124 29.0757 26.5185C29.212 26.9771 29.5782 27.1446 29.9626 27.1446C30.5209 27.1446 30.7937 26.7666 30.7937 26.438C30.7937 26.1341 30.7003 25.8485 30.1859 25.4458L29.9004 25.2225C29.2184 24.6888 28.9823 24.255 28.9823 23.7534C28.9823 23.0715 29.5525 22.5818 30.4148 22.5818C30.8175 22.5818 31.0784 22.644 31.2395 22.6871C31.2953 22.6999 31.3264 22.7182 31.3264 22.7612C31.3264 22.8417 31.3017 23.0221 31.3017 23.5053C31.3017 23.6417 31.2834 23.6912 31.233 23.6912C31.19 23.6912 31.1708 23.6536 31.1708 23.5795C31.1708 23.5237 31.1397 23.3314 31.0097 23.1703C30.9164 23.0523 30.737 22.8665 30.3342 22.8665C29.8756 22.8665 29.5965 23.1328 29.5965 23.5053C29.5965 23.7909 29.7393 24.0078 30.2537 24.3987L30.4276 24.5287C31.1781 25.0925 31.4445 25.5209 31.4445 26.1094C31.4445 26.4691 31.3081 26.8966 30.8614 27.1886C30.5511 27.3872 30.2042 27.443 29.8756 27.443C29.5159 27.443 29.2368 27.4 28.9704 27.2819" fill="#5F6062"/>
<path d="M32.8266 25.5556C32.8266 26.3492 32.8266 26.7776 32.9566 26.8883C33.0618 26.9817 33.2229 27.0247 33.7071 27.0247C34.0357 27.0247 34.2774 27.0183 34.433 26.8508C34.5071 26.7703 34.5822 26.5964 34.5941 26.4783C34.6005 26.4224 34.6124 26.3849 34.6627 26.3849C34.7057 26.3849 34.7121 26.416 34.7121 26.4902C34.7121 26.5588 34.6691 27.0238 34.6188 27.2032C34.5813 27.3396 34.5501 27.3707 34.2279 27.3707C33.7813 27.3707 33.4591 27.3579 33.1799 27.3524C32.9007 27.3396 32.6774 27.3341 32.4239 27.3341C32.3552 27.3341 32.2188 27.3341 32.0706 27.3405C31.9278 27.3405 31.7667 27.3533 31.6431 27.3533C31.5626 27.3533 31.5195 27.335 31.5195 27.2911C31.5195 27.26 31.5443 27.2416 31.6184 27.2416C31.7118 27.2416 31.7859 27.2297 31.8417 27.2169C31.9653 27.1922 31.9964 27.0558 32.0211 26.8755C32.0523 26.6147 32.0523 26.125 32.0523 25.5547V24.4637C32.0523 23.5209 32.0523 23.3479 32.0394 23.1493C32.0275 22.9388 31.9772 22.839 31.7731 22.796C31.7237 22.7832 31.6495 22.7777 31.5681 22.7777C31.4994 22.7777 31.4628 22.7649 31.4628 22.7218C31.4628 22.6788 31.5058 22.666 31.5992 22.666C31.8902 22.666 32.2811 22.6843 32.4486 22.6843C32.5978 22.6843 33.0499 22.666 33.2916 22.666C33.3785 22.666 33.4216 22.6788 33.4216 22.7218C33.4216 22.7649 33.384 22.7777 33.3099 22.7777C33.2412 22.7777 33.1424 22.7841 33.0682 22.796C32.9007 22.8271 32.8513 22.9324 32.8385 23.1493C32.8257 23.3479 32.8257 23.5209 32.8257 24.4637V25.5547L32.8266 25.5556Z" fill="#5F6062"/>
<path d="M36.1757 25.736C36.1446 25.736 36.1327 25.7488 36.1199 25.7854L35.7849 26.6723C35.7226 26.827 35.6915 26.9762 35.6915 27.0503C35.6915 27.162 35.7474 27.2426 35.9396 27.2426H36.0329C36.1071 27.2426 36.1263 27.2554 36.1263 27.292C36.1263 27.3414 36.0888 27.3542 36.021 27.3542C35.8224 27.3542 35.5561 27.3359 35.3638 27.3359C35.2952 27.3359 34.9547 27.3542 34.6325 27.3542C34.552 27.3542 34.5144 27.3414 34.5144 27.292C34.5144 27.2545 34.5392 27.2426 34.5886 27.2426C34.6444 27.2426 34.7314 27.2361 34.7808 27.2307C35.0664 27.1931 35.1835 26.9826 35.308 26.6723L36.864 22.7786C36.9382 22.5992 36.9757 22.5305 37.0379 22.5305C37.0938 22.5305 37.1313 22.5864 37.1926 22.7292C37.3418 23.0706 38.3331 25.6005 38.7304 26.5423C38.9656 27.1007 39.1459 27.1867 39.2759 27.2178C39.3692 27.2361 39.4617 27.2426 39.5358 27.2426C39.5853 27.2426 39.6164 27.249 39.6164 27.292C39.6164 27.3414 39.5605 27.3542 39.3308 27.3542C39.1011 27.3542 38.6553 27.3542 38.1592 27.3414C38.0475 27.335 37.9734 27.335 37.9734 27.292C37.9734 27.2545 37.9981 27.2426 38.0604 27.2361C38.1034 27.2242 38.1473 27.1675 38.1162 27.0934L37.6201 25.779C37.6073 25.7479 37.589 25.736 37.5578 25.736H36.1757ZM37.4407 25.4257C37.4718 25.4257 37.4782 25.4074 37.4718 25.3881L36.9135 23.8568C36.9071 23.8321 36.9007 23.801 36.8823 23.801C36.864 23.801 36.8512 23.8321 36.8448 23.8568L36.2746 25.3817C36.2682 25.4064 36.2746 25.4247 36.2993 25.4247L37.4407 25.4257Z" fill="#5F6062"/>
<path d="M40.2489 22.6916C40.2672 22.5864 40.3047 22.5305 40.3541 22.5305C40.4035 22.5305 40.4411 22.5617 40.5216 22.7227L42.214 26.2202L43.901 22.6797C43.9504 22.5809 43.9815 22.5305 44.0373 22.5305C44.0932 22.5305 44.1307 22.5928 44.149 22.7227L44.7128 26.5552C44.7687 26.946 44.8309 27.1254 45.0167 27.1812C45.1961 27.2371 45.3206 27.2435 45.4011 27.2435C45.457 27.2435 45.5 27.2499 45.5 27.2865C45.5 27.3359 45.4259 27.3551 45.3389 27.3551C45.1842 27.3551 44.3284 27.3368 44.0804 27.3176C43.9376 27.3048 43.901 27.2865 43.901 27.249C43.901 27.2178 43.9257 27.1995 43.9696 27.1803C44.0071 27.1675 44.0254 27.087 44.0007 26.914L43.6282 24.1854H43.6035L42.2516 27.0009C42.1088 27.292 42.0777 27.3478 42.0218 27.3478C41.966 27.3478 41.9037 27.2242 41.8049 27.0375C41.6557 26.7519 41.166 25.8037 41.0919 25.6298C41.036 25.4998 40.6644 24.7181 40.4466 24.2531H40.4219L40.0997 26.7208C40.0869 26.8325 40.0814 26.913 40.0814 27.0119C40.0814 27.13 40.1619 27.1858 40.2672 27.2105C40.3788 27.2352 40.4658 27.2416 40.5271 27.2416C40.5765 27.2416 40.6205 27.2545 40.6205 27.2847C40.6205 27.3405 40.5646 27.3533 40.4713 27.3533C40.2113 27.3533 39.9322 27.335 39.8205 27.335C39.7024 27.335 39.4049 27.3533 39.2063 27.3533C39.1441 27.3533 39.0947 27.3405 39.0947 27.2847C39.0947 27.2535 39.1322 27.2416 39.1935 27.2416C39.2429 27.2416 39.2869 27.2416 39.3793 27.2233C39.5532 27.1858 39.6027 26.9442 39.6338 26.7336L40.248 22.6907L40.2489 22.6916Z" fill="#5F6062"/>
</g>
<rect x="0.5" y="0.5" width="49" height="49" rx="24.5" stroke="#F4F4F4"/>
<defs>
<clipPath id="clip0_3365_204319">
<rect x="1" y="1" width="48" height="48" rx="24" fill="white"/>
</clipPath>
</defs>
</svg>
