<svg width="415" height="29" viewBox="0 0 415 29" fill="none" xmlns="http://www.w3.org/2000/svg">
<path d="M15.99 11.518H30.914C36.859 11.518 40.016 13.65 40.016 17.75C40.016 23.695 36.285 28 26.527 28H0.984L7.667 20.948H28.454C30.75 20.948 31.734 20.21 31.734 18.611C31.734 17.504 30.873 16.971 29.151 16.971H14.186C7.954 16.971 5.166 14.347 5.166 10.37C5.166 4.794 8.979 0.570999 18.573 0.570999H42.394L35.67 7.705H16.646C14.35 7.705 13.366 8.32 13.366 9.96C13.366 11.067 14.227 11.518 15.99 11.518ZM80.2325 0.570999L75.3535 28H66.9075L68.7935 17.422H52.4345L50.5895 28H42.0615L46.9405 0.570999H55.4275L53.6645 10.288H70.0235L71.7455 0.570999H80.2325ZM121.046 0.570999L118.299 16.028C116.823 24.31 110.468 28.451 99.0291 28.451C87.2621 28.451 82.0551 25.171 82.0551 18.611C82.0551 17.791 82.1371 16.93 82.3011 16.028L85.0481 0.570999H93.5351L90.7471 16.028C90.6651 16.602 90.6241 17.094 90.6241 17.545C90.6241 20.415 92.7561 21.399 100.259 21.399C106.819 21.399 109.074 19.882 109.771 16.028L112.518 0.570999H121.046ZM128.809 0.570999H159.969L153.163 7.705H143.405L139.797 28H131.31L134.877 7.705H122.003L128.809 0.570999ZM165.444 0.570999H196.604L189.798 7.705H180.04L176.432 28H167.945L171.512 7.705H158.638L165.444 0.570999ZM204.007 20.948H225.286L218.521 28H194.29L199.169 0.570999H207.615L204.007 20.948ZM236.6 20.948H259.97L253.246 28H226.842L231.721 0.570999H263.455L256.69 7.705H238.937L238.363 10.985H260.052L254.148 17.217H237.256L236.6 20.948Z" fill="#252525"/>
<path d="M275.003 11.518H289.927C295.872 11.518 299.029 13.65 299.029 17.75C299.029 23.695 295.298 28 285.54 28H259.997L266.68 20.948H287.467C289.763 20.948 290.747 20.21 290.747 18.611C290.747 17.504 289.886 16.971 288.164 16.971H273.199C266.967 16.971 264.179 14.347 264.179 10.37C264.179 4.794 267.992 0.570999 277.586 0.570999H301.407L294.683 7.705H275.659C273.363 7.705 272.379 8.32 272.379 9.96C272.379 11.067 273.24 11.518 275.003 11.518ZM306.422 0.570999H337.582L330.776 7.705H321.018L317.41 28H308.923L312.49 7.705H299.616L306.422 0.570999ZM355.492 0.12C367.341 0.12 373.327 3.769 373.327 11.723C373.327 22.998 365.865 28.451 350.49 28.451C338.641 28.451 332.655 24.761 332.655 16.807C332.655 5.532 340.117 0.12 355.492 0.12ZM351.72 21.317C362.749 21.317 364.799 19.595 364.799 12.584C364.799 8.156 361.683 7.254 354.221 7.254C343.192 7.254 341.183 8.935 341.183 15.987C341.183 20.415 344.34 21.317 351.72 21.317ZM414.307 9.386C414.307 16.192 408.362 20.989 398.85 20.989H384.5L383.27 28H374.824L377.284 13.978H400.9C403.852 13.978 405.656 12.461 405.656 10.329C405.656 8.73 404.385 7.705 402.007 7.705H378.391L385.279 0.570999H402.499C410.125 0.570999 414.307 4.138 414.307 9.386Z" fill="#02995F"/>
</svg>
