<svg width="48" height="48" viewBox="0 0 48 48" fill="none" xmlns="http://www.w3.org/2000/svg">
<g clip-path="url(#clip0_1621_69289)">
<path d="M0 24C0 10.7452 10.7452 0 24 0C37.2548 0 48 10.7452 48 24C48 37.2548 37.2548 48 24 48C10.7452 48 0 37.2548 0 24Z" fill="#FABC19"/>
<path d="M13.8454 16.9857C13.8454 16.9857 14.3105 15.1597 15.0528 14.5411C15.7951 13.9226 18.4623 12.1609 22.3221 10.9238C22.7823 10.7753 23.3118 10.9436 23.3366 10.9535C23.3118 11.1069 23.297 11.2058 23.2871 11.2454C23.2376 11.5324 23.0198 11.7205 23.0198 11.7205C23.8017 11.8244 24.3213 11.2652 24.4648 10.6269C24.6083 9.98852 25.1032 7.4549 25.9098 7.49449C28.1564 7.59841 29.7646 14.8529 29.6013 15.1844C29.4924 15.4021 28.6116 15.224 28.6116 15.224C30.012 17.431 31.8479 17.4112 32.2586 17.0599C32.6694 16.7085 32.4417 15.5753 32.4417 15.5753C36.8558 18.1931 36.6083 21.3057 36.6083 21.3057C37.9296 16.1494 34.8764 13.9423 34.8764 13.9423C36.0739 13.9028 37.3704 14.6648 37.3704 14.6648C35.5147 12.1708 31.6797 10.7902 31.6797 10.7902C31.6797 10.7902 27.2063 5.82191 25.7613 6.005C24.5638 6.1584 23.8809 8.35552 23.5493 9.85491C23.386 9.84007 23.0693 9.83017 22.6636 9.8747C22.3469 9.48378 21.0058 7.89037 20.4862 8.41491C20.2833 8.61779 20.219 10.0479 20.2042 10.6516C18.0367 11.5126 14.3501 13.1357 13.6029 14.3234C12.925 15.4071 12.7666 16.2087 12.7666 16.2087C12.7666 16.2087 8.34268 19.0541 7.26392 22.1469C7.26392 22.1469 10.233 18.683 13.8503 16.9807L13.8454 16.9857Z" fill="black"/>
<path d="M28.0718 14.6905C28.0124 12.4043 26.8743 10.5684 26.3003 10.4645C25.7213 10.3606 25.5382 12.5478 25.5382 12.5478C27.0623 13.5573 28.0718 14.6905 28.0718 14.6905Z" fill="black"/>
<path d="M17.2052 14.2744C16.3194 14.8088 16.7103 15.2641 16.7103 15.2641C16.7103 15.2641 16.5668 14.8088 17.6604 14.502C19.6101 13.9528 21.3718 13.3886 21.3322 12.9136C21.2926 12.4385 19.9714 12.2554 19.9714 12.2554C20.3425 12.7503 18.0959 13.74 17.2101 14.2744H17.2052Z" fill="black"/>
<path d="M16.5664 19.5138C16.5664 19.5138 17.1256 18.2173 17.5363 18.0491C17.5363 18.0491 18.2588 18.2322 18.6497 18.0887C19.0407 17.9451 19.7829 16.9555 20.07 16.9357C20.07 16.9357 19.3079 20.2561 16.2151 20.1918C16.2151 20.1918 18.4419 21.4487 19.5751 20.5629C20.7083 19.6771 19.8423 18.9942 21.3071 17.574C22.7718 16.1538 21.8019 16.0895 21.7376 16.1093C21.6733 16.1291 21.2229 15.9856 21.2229 15.9856C21.2229 15.9856 21.4308 15.7183 21.8415 15.5303C22.2522 15.3423 24.6225 14.2734 24.6671 13.635C24.7067 12.9967 22.9549 12.2742 22.0691 12.294C22.0691 12.294 22.8708 12.6255 22.8312 13.0759C22.7916 13.5262 20.4807 14.5406 20.4807 15.8371C20.4807 15.8371 19.6543 15.8965 19.0605 15.7777C18.4666 15.659 17.8233 15.7183 17.1652 16.1489C16.5071 16.5794 16.4625 15.6144 16.5268 15.4907C16.5268 15.4907 15.2501 16.2924 16.8584 17.3266C16.8584 17.3266 16.2002 18.0045 16.1359 18.1728C16.0716 18.341 15.8044 19.2219 16.5664 19.5138ZM18.1252 17.3068C18.3924 17.3068 18.6102 17.0891 18.6102 16.8218C18.6102 16.6783 18.5409 16.5497 18.4419 16.4606C18.7636 16.4408 19.4959 16.4804 19.4959 16.4804C19.4118 16.4606 19.2287 16.6635 18.818 17.1831C18.4073 17.7027 18.0163 17.3068 18.0163 17.3068V17.2821C18.051 17.2919 18.0856 17.3068 18.1302 17.3068H18.1252Z" fill="black"/>
<path d="M14.5278 23.7611C14.5278 23.7611 14.4981 22.5883 13.4144 22.8357C11.5934 23.2514 10.9698 26.4827 10.9698 26.4827C13.0086 22.712 14.5278 23.7611 14.5278 23.7611Z" fill="black"/>
<path d="M15.2059 26.6361C16.1956 25.0279 14.9882 24.0085 13.4442 24.8745C11.9003 25.7405 11.5292 27.8139 11.5292 27.8139C14.5923 24.4737 15.2108 26.6411 15.2108 26.6411L15.2059 26.6361Z" fill="black"/>
<path d="M11.2467 23.6351C12.3601 21.8437 13.6269 21.8734 13.6269 21.8734C12.1127 20.76 11.2467 23.6351 11.2467 23.6351Z" fill="black"/>
<path d="M29.8037 24.5679C29.8037 24.5679 28.6903 23.5782 28.814 21.7522C28.9377 19.9262 29.2792 17.1749 26.1864 15.2598C26.1864 15.2598 27.4532 17.2095 26.988 19.1246C26.5229 21.0396 24.974 24.3155 25.1027 25.4042C25.3798 27.7844 27.854 28.2199 27.6709 31.4661C27.6709 31.4661 29.1258 29.7044 28.8437 27.631C28.5616 25.5576 26.7406 24.6619 27.5472 23.024C27.5472 23.024 28.4726 24.3848 29.8037 24.5679Z" fill="black"/>
<path d="M38.706 15.9363C38.706 15.9363 41.4078 23.2898 38.3596 29.9652C38.3596 29.9652 38.5328 28.9953 37.7806 27.0803C36.9789 25.0267 37.2462 22.3792 37.5728 21.8844C37.5728 21.8844 36.0882 23.3689 36.1723 25.8432C36.2565 28.3174 36.9146 35.2848 31.882 37.8828C31.882 37.8828 33.7872 34.3991 33.0795 30.3166C33.0795 30.3166 33.7278 30.564 34.0692 31.43C34.0692 31.43 35.4301 27.8423 33.6684 23.4531C33.6684 23.4531 34.6581 23.6361 35.2767 24.1656C35.2767 24.1656 35.9249 21.0234 32.3719 18.8163C31.4762 18.2621 31.6 17.9504 31.6 17.9504C31.6 17.9504 31.3228 18.6629 31.9068 19.3706C32.4907 20.0782 33.2973 21.4737 33.1736 22.1862C33.1736 22.1862 32.2136 21.5083 30.823 21.6914C30.823 21.6914 33.4804 23.9479 33.0795 28.8024C33.0795 28.8024 32.4016 28.0601 30.6696 27.7533C30.6696 27.7533 32.6193 31.4003 30.8874 34.8989C30.8874 34.8989 30.7637 33.6618 30.2094 32.8898C30.2094 32.8898 29.7789 35.458 26.6861 36.3537C26.6861 36.3537 29.19 33.2312 26.221 31.6527C23.2519 30.0741 20.748 33.5677 20.2531 36.6308C20.2531 36.6308 16.8189 36.8783 16.4824 35.4877C16.1459 34.0972 17.1306 33.5083 17.1306 33.5083C17.1306 33.5083 17.6552 33.8498 18.8626 33.2906C20.07 32.7314 22.6036 31.2172 22.3562 29.3021C22.1088 27.3871 19.11 25.4968 16.7298 26.2737C14.3496 27.0506 12.9887 29.1487 11.7516 29.1191C10.5145 29.0894 9.00028 27.204 9.21802 26.2143C9.43575 25.2246 10.2374 24.9475 10.5145 23.2749C10.5145 23.2749 10.079 23.3145 9.79204 23.1314C9.50503 22.9483 8.74296 22.6366 8.32729 22.7405C7.91657 22.8444 6.90708 23.5223 6.86254 23.3986C6.81801 23.2749 6.96646 22.5326 6.96646 22.5326C6.96646 22.5326 5.85305 23.7054 6.01635 24.1805C6.17965 24.6555 7.14955 25.8283 8.15904 26.4914C8.15904 26.4914 8.34708 27.9364 9.66338 29.2725C10.4502 30.0741 11.1875 30.2176 11.816 30.084C12.0832 30.4749 12.9838 31.6626 14.4238 31.9199C14.4238 31.9199 14.1764 30.2622 14.3545 29.0102C14.4139 28.9805 14.4683 28.9508 14.5129 28.9063C14.7405 28.6786 17.378 26.2489 19.3376 28.5995C19.3376 28.5995 18.4519 28.931 18.1005 30.0444C17.7492 31.1578 17.5463 33.9191 14.6366 32.1475C14.6366 32.1475 14.3892 33.736 15.2749 34.6811C15.2749 34.6811 15.1512 36.3735 17.0663 37.2989C18.9813 38.2242 20.3224 37.5265 21.5595 38.1451C21.5595 38.1451 21.4358 35.6114 22.4849 34.0626C23.5339 32.5137 25.0234 31.9991 25.741 32.5978C26.4634 33.1966 26.9137 35.463 24.1327 37.8135C24.1327 37.8135 27.3294 38.2242 29.5117 36.5566C29.5117 36.5566 29.2395 39.5009 27.0325 41.9999C35.0243 40.2828 40.9921 33.1768 40.9921 24.6704C40.9921 21.4984 40.1608 18.5244 38.701 15.9462L38.706 15.9363ZM8.66873 25.8234C8.19368 25.8234 7.34749 24.5665 7.20399 24.319C7.06048 24.0716 8.00564 23.6164 8.2976 23.5372C8.58956 23.458 8.89142 23.5223 8.93595 23.6609C8.97554 23.7846 8.33719 24.1755 8.25801 24.319C8.17389 24.4625 8.76276 25.0069 8.85678 25.1207C9.02008 25.3285 9.14379 25.8234 8.67368 25.8234H8.66873ZM12.5434 29.7871C12.677 29.7079 12.8007 29.6238 12.9195 29.5347C13.2213 29.3071 13.449 29.1982 13.5974 29.1487C13.5677 29.5842 13.538 30.3512 13.6766 30.9846C13.6766 30.9846 12.8749 30.47 12.5434 29.7871ZM18.8329 30.8362C18.8329 30.8362 19.8028 30.8758 19.8424 30.7125C19.882 30.5492 19.5356 29.416 19.5356 29.416C19.5356 29.416 20.7529 29.5397 20.7727 29.9306C20.7925 30.3215 20.0948 31.3112 18.6102 31.9496C18.6102 31.9496 18.8774 31.1677 18.8378 30.8362H18.8329ZM15.745 34.0923C15.4679 33.9982 15.2205 32.9789 15.2205 32.9789C15.6213 33.3055 16.4428 33.3203 16.4428 33.3203C16.0568 33.6914 16.0271 34.1863 15.745 34.0923Z" fill="black"/>
<path d="M25.8647 16.6238C25.8647 16.6238 23.7814 15.451 22.856 16.6634C21.9851 17.8065 22.5492 19.7711 22.0395 20.9933C22.0246 20.9785 22.0049 20.9636 21.99 20.9488C20.837 19.9195 19.4119 21.6713 19.1446 22.1859C18.8774 22.7005 18.5261 22.7649 18.5261 22.7649C15.9925 23.2795 16.5269 21.2407 15.6807 20.6222C14.8345 20.0036 13.4143 20.9092 13.4143 20.9092C14.8345 20.642 15.1661 21.6317 15.1265 22.0226C15.0869 22.4135 15.3739 23.5665 15.7648 24.2098C16.1558 24.8482 17.7442 24.3929 19.0407 24.4968C20.3372 24.6008 21.0795 26.1892 21.0795 26.1892C21.8613 24.294 19.7582 23.428 19.7582 23.428C19.7582 23.428 20.3719 22.2651 21.0993 22.6659C23.4102 23.9426 22.8312 29.1187 22.8312 29.1187C24.8205 25.3777 23.9447 23.1855 22.9055 21.8989C23.0391 20.7311 23.628 17.0593 25.8597 16.6238H25.8647Z" fill="black"/>
</g>
<defs>
<clipPath id="clip0_1621_69289">
<rect width="48" height="48" rx="24" fill="white"/>
</clipPath>
</defs>
</svg>
