<svg width="50" height="50" viewBox="0 0 50 50" fill="none" xmlns="http://www.w3.org/2000/svg">
<g clip-path="url(#clip0_3365_207857)">
<path d="M1 25C1 11.7452 11.7452 1 25 1C38.2548 1 49 11.7452 49 25C49 38.2548 38.2548 49 25 49C11.7452 49 1 38.2548 1 25Z" fill="white"/>
<path fill-rule="evenodd" clip-rule="evenodd" d="M38.1764 15.7104L30.3413 8.00015H18.9664L11 15.8352V23.9264L12.261 25.0625L11 26.1987V34.2899L18.835 42.0002H30.4661L38.1764 34.4147V26.0739L37.0402 25.0625L38.1764 24.0511V15.7104ZM24.6473 39.603L15.2951 30.2509L16.3065 29.2395L18.835 31.6432H30.4661L32.9946 29.1147L34.1308 30.2509L24.6473 39.603ZM20.4769 25.0625L24.6473 20.8922L28.9424 25.0625L24.6473 29.2329L20.4769 25.0625ZM32.9946 20.8922L30.3413 18.3637H18.9664L16.3131 21.017L15.3017 19.8808L24.6538 10.5286L34.1373 19.8808L33.0012 20.8922H32.9946Z" fill="#E32728"/>
</g>
<rect x="0.5" y="0.5" width="49" height="49" rx="24.5" stroke="#F4F4F4"/>
<defs>
<clipPath id="clip0_3365_207857">
<rect x="1" y="1" width="48" height="48" rx="24" fill="white"/>
</clipPath>
</defs>
</svg>
