<svg width="50" height="50" viewBox="0 0 50 50" fill="none" xmlns="http://www.w3.org/2000/svg">
<g clip-path="url(#clip0_3365_207916)">
<rect x="1" y="1" width="48" height="48" rx="14" fill="white"/>
<path d="M11.1753 20.9032C10.6792 20.9032 10.2213 21.3897 10.1402 22.0145L9.76342 24.7429C9.67756 25.363 10.0019 25.8543 10.4932 25.8543C10.9845 25.8543 11.4472 25.363 11.533 24.7429L11.9051 22.0145C11.9909 21.3945 11.6666 20.9032 11.1705 20.9032M6 31.85L7.29263 22.7777C7.57882 20.7744 9.69187 19.0286 11.9623 19.0286C14.2328 19.0286 15.3489 20.6265 15.1295 22.1576L14.9435 23.4741C14.7908 24.5855 13.9704 25.6492 12.5252 26.4362L14.0038 28.9499C14.1755 29.2266 14.2423 29.6511 14.1755 30.0995C14.0229 31.0582 13.3074 31.8404 12.5252 31.8404C12.0959 31.8404 11.7572 31.6067 11.5521 31.249L9.37229 27.476L9.00024 30.1185C8.86191 31.0725 8.14643 31.8404 7.38326 31.8404H6V31.85Z" fill="#005FA9"/>
<path d="M16.5748 21.032C16.7274 19.9254 17.5955 19.0095 18.4827 19.0095C19.3699 19.0095 19.9661 19.9206 19.8135 21.032L19.1886 25.611H20.9392L21.5879 21.032C21.7405 19.9254 22.6086 19.0095 23.4958 19.0095C24.383 19.0095 24.984 19.9206 24.8266 21.032L23.6008 29.8276C23.4434 30.9342 22.58 31.85 21.6928 31.85C20.8056 31.85 20.2142 30.9342 20.362 29.8276L20.7532 26.98H18.9788L18.5876 29.8276C18.435 30.9342 17.5669 31.85 16.6797 31.85H15.077L16.5748 21.032Z" fill="#005FA9"/>
<path d="M30.1116 20.9032C29.5488 20.9032 29.0384 21.4756 28.9144 22.1815L28.7093 23.436C28.59 24.1419 28.9859 24.7143 29.5488 24.7143C30.1116 24.7143 30.6363 24.1419 30.7555 23.436L30.9559 22.1815C31.0799 21.4756 30.6697 20.9032 30.1068 20.9032M29.42 25.5633C28.8571 25.5633 28.3325 26.1405 28.2275 26.8416L27.9747 28.678C27.8746 29.3792 28.2466 29.9516 28.8047 29.9516C29.3627 29.9516 29.9161 29.3792 30.0162 28.678L30.2738 26.8416C30.374 26.1405 29.9876 25.5633 29.42 25.5633ZM33.8035 22.6871C33.6652 23.5409 33.2073 24.3709 32.3868 25.1388C32.9497 25.735 33.1834 26.5221 33.0642 27.29L32.9497 28.0723C32.6444 30.0995 30.5457 31.8404 28.2991 31.8404H24.736L26.0477 22.7539C26.3387 20.7458 28.4517 19 30.7174 19C32.9831 19 34.1231 20.5979 33.8893 22.129L33.8035 22.6823V22.6871Z" fill="#005FA9"/>
<path d="M46 25.425L40.1379 31.2871L34.2805 25.425L40.1379 19.5724L46 25.425Z" fill="#E63137"/>
</g>
<rect x="0.5" y="0.5" width="49" height="49" rx="24.5" stroke="#F4F4F4"/>
<defs>
<clipPath id="clip0_3365_207916">
<rect x="1" y="1" width="48" height="48" rx="24" fill="white"/>
</clipPath>
</defs>
</svg>
