<svg width="16" height="16" viewBox="0 0 16 16" fill="none" xmlns="http://www.w3.org/2000/svg">
<path d="M15.8006 3.165C15.7202 3.06865 15.6196 2.99114 15.5059 2.93794C15.3922 2.88475 15.2683 2.85716 15.1428 2.85714H3.85712L3.55212 1.17286C3.49223 0.843696 3.31872 0.545996 3.06183 0.33166C2.80494 0.117324 2.48097 -5.04773e-05 2.14641 1.62846e-08H0.857137C0.62981 1.62846e-08 0.411794 0.0903058 0.25105 0.251051C0.0903052 0.411796 0 0.629814 0 0.857142C0 1.08447 0.0903052 1.30249 0.25105 1.46323C0.411794 1.62398 0.62981 1.71428 0.857137 1.71428H1.90784L3.68712 11.5C3.73489 11.7599 3.8337 12.0078 3.97783 12.2293C3.72265 12.5279 3.54872 12.8872 3.4728 13.2725C3.39689 13.6579 3.42156 14.0563 3.54443 14.4294C3.66731 14.8024 3.88424 15.1375 4.1743 15.4023C4.46437 15.6671 4.81777 15.8527 5.20044 15.9412C5.58311 16.0297 5.98213 16.0181 6.359 15.9075C6.73587 15.7969 7.07789 15.5911 7.35206 15.3098C7.62624 15.0286 7.82331 14.6815 7.92428 14.3019C8.02525 13.9223 8.02671 13.5231 7.92852 13.1428H10.3571C10.2379 13.6044 10.266 14.0916 10.4374 14.5363C10.6089 14.9811 10.915 15.3611 11.3131 15.6233C11.7112 15.8854 12.1813 16.0165 12.6576 15.9983C13.1339 15.9801 13.5925 15.8134 13.9694 15.5216C14.3463 15.2298 14.6226 14.8275 14.7595 14.371C14.8965 13.9144 14.8873 13.4265 14.7332 12.9754C14.5791 12.5244 14.2879 12.1328 13.9003 11.8554C13.5126 11.578 13.048 11.4288 12.5713 11.4286H5.65496C5.58816 11.4285 5.5235 11.405 5.47222 11.3622C5.42094 11.3194 5.38627 11.26 5.37425 11.1943L5.20854 10.2857H13.1499C13.6184 10.2857 14.072 10.1212 14.4316 9.821C14.7913 9.52076 15.0341 9.1038 15.1178 8.64285L15.9863 3.86714C16.0087 3.74364 16.0036 3.61675 15.9715 3.49542C15.9394 3.3741 15.8811 3.2613 15.8006 3.165ZM6.28567 13.7143C6.28567 13.8273 6.25216 13.9378 6.18937 14.0317C6.12658 14.1257 6.03733 14.1989 5.93292 14.2422C5.82851 14.2854 5.71361 14.2968 5.60277 14.2747C5.49192 14.2527 5.3901 14.1982 5.31019 14.1183C5.23027 14.0384 5.17585 13.9366 5.1538 13.8258C5.13175 13.7149 5.14307 13.6 5.18632 13.4956C5.22957 13.3912 5.30281 13.3019 5.39678 13.2391C5.49075 13.1764 5.60123 13.1428 5.71425 13.1428C5.8658 13.1428 6.01114 13.203 6.1183 13.3102C6.22547 13.4174 6.28567 13.5627 6.28567 13.7143ZM12.5713 14.2857C12.4583 14.2857 12.3478 14.2522 12.2539 14.1894C12.1599 14.1266 12.0867 14.0374 12.0434 13.9329C12.0002 13.8285 11.9888 13.7136 12.0109 13.6028C12.0329 13.4919 12.0874 13.3901 12.1673 13.3102C12.2472 13.2303 12.349 13.1759 12.4599 13.1538C12.5707 13.1318 12.6856 13.1431 12.79 13.1863C12.8944 13.2296 12.9837 13.3028 13.0465 13.3968C13.1093 13.4908 13.1428 13.6013 13.1428 13.7143C13.1428 13.8658 13.0826 14.0112 12.9754 14.1183C12.8682 14.2255 12.7229 14.2857 12.5713 14.2857ZM13.4285 8.33713C13.4165 8.40248 13.3822 8.46162 13.3313 8.50438C13.2805 8.54714 13.2163 8.57084 13.1499 8.57142H4.89711L4.16997 4.57142H14.1156L13.4285 8.33713Z" fill="#252525"/>
</svg>
