<svg width="50" height="50" viewBox="0 0 50 50" fill="none" xmlns="http://www.w3.org/2000/svg">
<g clip-path="url(#clip0_3365_207902)">
<path d="M1 25C1 11.7452 11.7452 1 25 1C38.2548 1 49 11.7452 49 25C49 38.2548 38.2548 49 25 49C11.7452 49 1 38.2548 1 25Z" fill="white"/>
<path d="M33.9049 36.3302C35.3232 37.2563 35.7201 39.1562 34.794 40.5746C33.8678 41.9929 31.9679 42.3898 30.5496 41.4637L20.0074 34.626C20.0074 34.626 16.5039 32.3239 16.2287 32.1598C15.9535 31.9958 14.9162 31.2337 14.4028 30.117C14.4028 30.117 13.4767 28.524 14.4981 25.9467C14.5246 25.8726 14.8368 25.0841 15.4454 24.2902L33.9049 36.3249V36.3302Z" fill="#58B947"/>
<path d="M18.2768 12.8271C17.7317 13.1764 16.922 13.711 16.7367 13.8486C16.4562 14.0655 14.9268 15.2775 14.8897 18.0506C14.8897 18.2147 14.8156 20.6862 17.086 22.3056C17.3506 22.4961 22.0925 25.5762 22.0925 25.5762L33.9472 33.2818C33.9472 33.2818 35.5508 31.329 35.3497 28.9263C35.3285 28.6987 35.3656 27.3333 33.5027 25.6821C33.328 25.5233 31.5816 24.4014 31.5816 24.4014L26.8503 21.3424L23.1139 18.8974L21.6586 17.9501C21.6586 17.9501 26.374 14.8753 27.1519 14.3672C27.9299 13.8591 28.6338 13.494 28.9778 12.9965C29.0572 12.8748 29.8404 11.9698 29.5758 10.4985C29.5493 10.3557 29.4488 9.72587 28.8825 9.08551C28.8825 9.08551 28.2474 8.16994 26.7921 8.01647C26.7921 8.01647 26.1411 7.90004 25.2573 8.28637L23.9501 9.10668L18.2874 12.8271H18.2768Z" fill="#0086CB"/>
<path d="M26.1729 17.9554C26.1729 17.9554 28.8772 19.723 29.1418 19.887C29.4064 20.0511 29.9939 20.448 30.2691 20.6068C30.5443 20.7656 31.1423 21.0355 32.0314 20.9826C32.1743 20.972 33.3439 20.8502 34.1377 19.8077C34.196 19.7283 34.7675 19.0456 34.7675 17.9554C34.7675 17.8601 34.8152 16.9498 34.0795 16.0237C34.016 15.9443 33.418 15.161 32.1902 14.9441C31.9891 14.907 30.9994 14.78 29.978 15.468C29.8192 15.5738 27.8082 16.881 27.8082 16.881L26.1676 17.9554H26.1729Z" fill="#58B947"/>
<path d="M22.5953 38.9551C22.5953 38.9551 19.8909 37.1875 19.6263 37.0234C19.3617 36.8594 18.7743 36.4625 18.4991 36.3037C18.2239 36.1449 17.6258 35.875 16.7367 35.9279C16.5938 35.9385 15.4242 36.0603 14.6304 37.1028C14.5722 37.1822 14.0006 37.8649 14.0006 38.9551C14.0006 39.0504 13.953 39.9607 14.6886 40.8868C14.7521 40.9662 15.3502 41.7495 16.578 41.9664C16.7791 42.0035 17.7687 42.1305 18.7901 41.4425C18.9489 41.3367 20.96 40.0295 20.96 40.0295L22.6006 38.9551H22.5953Z" fill="#0086CB"/>
</g>
<rect x="0.5" y="0.5" width="49" height="49" rx="24.5" stroke="#F4F4F4"/>
<defs>
<clipPath id="clip0_3365_207902">
<rect x="1" y="1" width="48" height="48" rx="24" fill="white"/>
</clipPath>
</defs>
</svg>
