<svg width="10" height="11" viewBox="0 0 10 11" fill="none" xmlns="http://www.w3.org/2000/svg">
<path d="M4.06417 1.48475C4.38935 0.621362 5.61065 0.621363 5.93583 1.48475L6.50425 2.99398C6.64507 3.36789 6.99494 3.62208 7.39405 3.64047L9.00507 3.71469C9.92669 3.75715 10.3041 4.91867 9.58344 5.49474L8.32373 6.50171C8.01164 6.75118 7.87801 7.16248 7.98385 7.54774L8.4111 9.10285C8.65551 9.99248 7.66746 10.7103 6.8969 10.203L5.54993 9.31609C5.21623 9.09637 4.78377 9.09637 4.45007 9.31609L3.1031 10.203C2.33254 10.7103 1.34449 9.99248 1.5889 9.10285L2.01615 7.54774C2.12199 7.16248 1.98836 6.75118 1.67627 6.50171L0.416556 5.49474C-0.30409 4.91867 0.073314 3.75715 0.99493 3.71469L2.60595 3.64047C3.00506 3.62208 3.35493 3.36788 3.49575 2.99398L4.06417 1.48475Z" fill="#FFDC2E"/>
</svg>
